<?xml version="1.0" encoding="UTF-8"?>
<svg id="Capa_2" data-name="Capa 2" xmlns="http://www.w3.org/2000/svg" viewBox="0 0 36.56 36.56">
  <defs>
    <style>
      .cls-1 {
        fill: #575756;
      }
    </style>
  </defs>
  <g id="Capa_1-2" data-name="Capa 1">
    <path class="cls-1" d="M15.52,15.99c-1.28-1.21-3-1.89-4.85-1.9h-.39s0,.36,0,.36c.01,1.75.72,3.38,2,4.59s3,1.89,4.85,1.9h.39s0-.36,0-.36c-.01-1.75-.72-3.38-2-4.59ZM15.52,22.46c-1.28-1.21-3-1.89-4.85-1.9h-.39s0,.36,0,.36c.01,1.75.72,3.38,2,4.59,1.28,1.21,3,1.89,4.85,1.9h.39s0-.36,0-.36c-.01-1.75-.72-3.38-2-4.59ZM18.55,6.74l-.27-.26-.27.26c-1.3,1.27-2.01,2.93-2.01,4.69s.72,3.42,2.01,4.69l.27.26.27-.26c1.3-1.27,2.01-2.93,2.01-4.69s-.72-3.42-2.01-4.69ZM21.04,15.99c-1.28,1.21-1.99,2.84-2,4.59v.36s.38,0,.38,0c1.85-.01,3.57-.68,4.85-1.9,1.28-1.21,1.99-2.84,2-4.59v-.37s-.38,0-.38,0c-1.85,0-3.57.68-4.85,1.9ZM18.28,0C8.18,0,0,8.18,0,18.28s8.18,18.28,18.28,18.28,18.28-8.18,18.28-18.28S28.37,0,18.28,0ZM32.89,19.9c-.73,6.79-6.21,12.26-13,12.99-3.96.43-7.64-.73-10.5-2.91l-2.81-2.81c-2.18-2.87-3.34-6.55-2.91-10.51.73-6.79,6.2-12.26,12.99-13,2.23-.24,4.37.02,6.32.68,2.07.7,3.9,1.95,5.45,3.49l.11.11c2.97,2.97,4.67,7.03,4.42,11.22-.01.25-.03.49-.06.74ZM21.04,22.46c-1.28,1.21-1.99,2.84-2,4.59v.36s.38,0,.38,0c1.85-.01,3.57-.68,4.85-1.9,1.28-1.21,1.99-2.84,2-4.59v-.37s-.38,0-.38,0c-1.85,0-3.57.68-4.85,1.9Z"/>
  </g>
</svg>