<?xml version="1.0" encoding="UTF-8"?>
<svg id="Capa_2" data-name="Capa 2" xmlns="http://www.w3.org/2000/svg" viewBox="0 0 51.02 36.56">
  <defs>
    <style>
      .cls-1 {
        fill: #575756;
      }
    </style>
  </defs>
  <g id="Capa_1-2" data-name="Capa 1">
    <path class="cls-1" d="M27.35,20.72c-.21-4.73-1.75-9.35-2.46-11.24-.7-1.12-1.37-2.3-2.14-3.41-1.3-1.92-2.87-3.59-4.85-4.84-2.38-1.51-4.81-1.65-7.27-.19-1.58.94-2.92,2.16-4.08,3.57C3.36,8.49,1.36,12.92.4,17.84c-.19.92-.27,1.85-.4,2.79v2.81c.03.09.08.18.09.26.21,2.13.81,4.13,1.85,5.98,1.51,2.68,3.66,4.67,6.53,5.84,2.64,1.06,5.37,1.27,8.16.82,2.16-.33,4.16-1.11,5.86-2.49.77-.62,1.48-1.33,2.23-2.03,1.49-2.31,2.86-5.4,2.63-11.1ZM6.98,15.52c-.56,1.46-.92,2.96-1.11,4.51-.19,1.61-.17,3.2.44,4.73.18.44.27.88-.12,1.26-.47.44-1.16.26-1.42-.36-.53-1.27-.74-2.61-.71-3.99.02-2.31.48-4.55,1.26-6.73.21-.56.66-.79,1.14-.64.48.16.73.68.52,1.23ZM50.66,18c-.66-3.77-2.03-7.28-4.05-10.52-1.52-2.42-3.31-4.61-5.74-6.19-1.52-.97-3.14-1.54-4.97-1.19-1.34.26-2.52.89-3.61,1.71-1.67,1.25-3,2.81-4.15,4.52-.5.74-.95,1.5-1.4,2.25.62,1.56,2.48,6.67,2.72,12.09.25,5.91-1.23,9.29-2.72,11.63.98,1.02,2.11,1.84,3.37,2.5,2.89,1.52,5.96,2.08,9.21,1.57,4.41-.69,7.68-3,9.82-6.9,1.98-3.62,2.22-7.49,1.52-11.47ZM36.78,5.25c-.91,1.18-1.87,2.32-2.69,3.56-.96,1.44-1.55,3.05-1.58,4.82-.02.54-.42.92-.89.9-.44-.02-.82-.42-.85-.9v-.48c.09-1.63.66-3.2,1.47-4.69.91-1.66,2.02-3.17,3.32-4.53.55-.58,1.26-.47,1.55.25.2.45-.07.76-.33,1.08Z"/>
  </g>
</svg>