<?xml version="1.0" encoding="UTF-8"?>
<svg id="Capa_2" data-name="Capa 2" xmlns="http://www.w3.org/2000/svg" viewBox="0 0 36.57 36.56">
  <defs>
    <style>
      .cls-1 {
        fill: #575756;
      }
    </style>
  </defs>
  <g id="Capa_1-2" data-name="Capa 1">
    <g>
      <path class="cls-1" d="M18.29,0C8.19,0,0,8.18,0,18.28s8.19,18.28,18.29,18.28,18.28-8.18,18.28-18.28S28.38,0,18.29,0ZM18.29,32.98c-3.29,0-6.32-1.08-8.77-2.91l5.99-6v-3.86l-.87-.87-7.94,7.94-.12-.11c-1.88-2.47-3-5.55-3-8.89,0-8.11,6.6-14.71,14.71-14.71,3.33,0,6.41,1.12,8.89,3.01l.1.1-3.45,3.44h2.42c.06-.01,1.01-.07,1.46.62.19.28.25.62.19,1.01l2.17-2.24c1.83,2.45,2.92,5.48,2.92,8.77,0,8.11-6.6,14.7-14.7,14.7Z"/>
      <path class="cls-1" d="M25.79,11.42c-.14-.03-.29-.04-.44-.04h-14.51c-.16,0-.31.01-.44.04-.14.03-.27.09-.39.18-.12.09-.19.22-.19.38,0,.24.15.51.44.8l6.52,6.52v7.92h-3.3c-.18,0-.33.07-.46.2s-.2.28-.2.46.07.33.2.46c.13.13.29.2.46.2h9.24c.18,0,.33-.07.46-.2.13-.13.2-.29.2-.46s-.07-.33-.2-.46c-.13-.13-.29-.2-.46-.2h-3.3v-7.92l6.51-6.52c.3-.3.44-.56.44-.8,0-.16-.06-.28-.19-.38-.12-.09-.25-.15-.39-.18Z"/>
    </g>
  </g>
</svg>