<?xml version="1.0" encoding="UTF-8"?>
<svg id="Capa_2" data-name="Capa 2" xmlns="http://www.w3.org/2000/svg" viewBox="0 0 36.65 36.64">
  <defs>
    <style>
      .cls-1 {
        fill: #575756;
      }
    </style>
  </defs>
  <g id="Capa_1-2" data-name="Capa 1">
    <path class="cls-1" d="M10.23,17.05c-1.66-.04-3.08,1.34-3.11,3.02-.02,1.65,1.34,3.05,3,3.09,1.66.04,3.09-1.34,3.11-3.02.03-1.65-1.34-3.06-3-3.09ZM10.23,17.05c-1.66-.04-3.08,1.34-3.11,3.02-.02,1.65,1.34,3.05,3,3.09,1.66.04,3.09-1.34,3.11-3.02.03-1.65-1.34-3.06-3-3.09ZM10.23,17.05c-1.66-.04-3.08,1.34-3.11,3.02-.02,1.65,1.34,3.05,3,3.09,1.66.04,3.09-1.34,3.11-3.02.03-1.65-1.34-3.06-3-3.09ZM10.23,17.05c-1.66-.04-3.08,1.34-3.11,3.02-.02,1.65,1.34,3.05,3,3.09,1.66.04,3.09-1.34,3.11-3.02.03-1.65-1.34-3.06-3-3.09ZM35.69.33c-.5-.49-1.12-.32-1.69-.19-1.79.4-3.1,1.48-4.11,2.95-.18.26-.35.52-.52.8-.11-.07-.2-.13-.28-.18-1.54-1.02-3.2-1.67-5.08-1.56-2.48.15-4.25,1.36-5.26,3.65-.19.44-.35.87-.54,1.3-.34.72-.88,1.18-1.67,1.32-.37.07-.75.13-1.13.15-1.95.11-3.32,1.08-4.21,2.77-.31.58-.55,1.2-.84,1.8,0,0,0,0-.02,0-.25,0-.5,0-.76.02-1.53.1-2.9.6-3.99,1.74-.66.7-1.09,1.55-1.43,2.45-.84,2.16-1.99,4.1-3.86,5.57-.47.37-.33.98.27,1.13,2.19.53,4.21,1.45,6.19,2.51,1.72.92,3.52,1.4,5.43,1.31.17-1.3.64-3.09,1.95-4.24.07-.08.92-.89,1.72-1.27,0-.03,0-.07,0-.12-.09-.79.05-1.96.05-2.01.03-.12.32-1.56.88-2.84-.39-.39-.62-.85-.76-1.37-.31-1.2.15-2.44,1.16-3.17.93-.67,1.92-.78,2.92-.38-.15-.59-.25-1.29-.16-2,.13-.98.53-2.41,1.73-3.76,2.14-2.38,4.98-2.69,5.09-2.7l.15,1.47s-2.4.28-4.13,2.23c-.76.84-1.23,1.84-1.37,2.95-.09.63.07,1.29.24,1.84.3,1.01-.11,1.68-.16,1.75-.42.89-1.1,1.36-1.7,1.79-.44.31-.84.59-1.18,1.07-.65.9-1.12,2.72-1.24,3.35-.03.23-.11,1.09-.05,1.6.13,1.06-.46,1.52-.83,1.63-.37.14-1.03.69-1.35,1.01-1.69,1.49-1.55,4.67-1.55,4.7l-.03,1.14c-.04,1.13-.2,2.26-.34,3.37-.07.63-.35,1.24-.48,1.87-.05.22,0,.53.13.68.13.15.43.14.65.17.09,0,.19-.05.29-.08,1.55-.46,3.11-.86,4.74-.91,1.06-.04,2.14-.1,3.18-.3,2.5-.45,4.27-1.87,5.09-4.32.27-.81.39-1.68.54-2.52.06-.33.15-.57.43-.79.57-.45,1.12-.93,1.62-1.44,1.58-1.63,2.31-3.55,2.01-5.84-.06-.46-.1-.94-.13-1.4-.03-.46.05-.86.47-1.18,2.74-2.09,3.57-4.89,2.87-8.15-.2-.94-.71-1.81-1.14-2.69-.22-.45-.22-.85,0-1.27.12-.21.24-.42.39-.61.64-.85,1.45-1.51,2.36-2.08.19-.12.42-.38.42-.56.02-.86-.36-1.58-.96-2.17ZM10.18,24.38c-2.38,0-4.28-1.9-4.27-4.29,0-2.37,1.9-4.26,4.29-4.26,2.35,0,4.25,1.91,4.25,4.27s-1.9,4.28-4.27,4.28ZM24.11,29.79c-.92,1.77-2.45,2.68-4.35,3.06-.13.03-.25.05-.38.07-.13,0-.26,0-.38.02,0,.03-.02.05-.03.08-.23-.09-.51-.12-.66-.28-.13-.13-.17-.42-.13-.61.07-.32.35-.4.65-.42,1.02-.06,1.96-.36,2.81-.94.59-.41,1.04-.93,1.37-1.56.23-.44.53-.57.88-.4.37.18.45.53.22.98ZM10.23,17.05c-1.66-.04-3.08,1.34-3.11,3.02-.02,1.65,1.34,3.05,3,3.09,1.66.04,3.09-1.34,3.11-3.02.03-1.65-1.34-3.06-3-3.09ZM10.23,17.05c-1.66-.04-3.08,1.34-3.11,3.02-.02,1.65,1.34,3.05,3,3.09,1.66.04,3.09-1.34,3.11-3.02.03-1.65-1.34-3.06-3-3.09ZM10.23,17.05c-1.66-.04-3.08,1.34-3.11,3.02-.02,1.65,1.34,3.05,3,3.09,1.66.04,3.09-1.34,3.11-3.02.03-1.65-1.34-3.06-3-3.09ZM10.23,17.05c-1.66-.04-3.08,1.34-3.11,3.02-.02,1.65,1.34,3.05,3,3.09,1.66.04,3.09-1.34,3.11-3.02.03-1.65-1.34-3.06-3-3.09ZM10.23,17.05c-1.66-.04-3.08,1.34-3.11,3.02-.02,1.65,1.34,3.05,3,3.09,1.66.04,3.09-1.34,3.11-3.02.03-1.65-1.34-3.06-3-3.09Z"/>
  </g>
</svg>