<?xml version="1.0" encoding="UTF-8"?>
<svg id="Capa_2" data-name="Capa 2" xmlns="http://www.w3.org/2000/svg" viewBox="0 0 31.55 36.56">
  <defs>
    <style>
      .cls-1 {
        fill: #575756;
      }
    </style>
  </defs>
  <g id="Capa_1-2" data-name="Capa 1">
    <path class="cls-1" d="M23.39,18.25c-1.07.56-2.06,1.25-3.08,1.9-.4.26-.3.28.27.71.25.19.52.37.79.52,1.33.72,2.73.87,4.16.39,1.36-.46,2.36-1.38,3.17-2.53.4-.58.72-1.23,1.14-1.8.53-.72,1.12-1.4,1.69-2.09-.47-.22-1-.46-1.53-.72-1.16-.57-2.3-1.18-3.6-1.35-.44-.06-.88-.1-1.33-.14-.92-.08-1.86-.06-2.76.13-.39.08-.7.17-.9.24-1.41.48-2.39,1.39-2.69,2.87-.11.56-.04,1.17.02,1.76.02.19-.06.38-.22.5-.52.4-1.03.82-1.55,1.23-.12.09-.24.18-.37.29-.02-.08-.04-.11-.04-.14.03-1.42.02-2.84.09-4.26.11-2.05.42-4.1.14-6.16-.01-.1.09-.28.19-.34,1.48-.93,1.97-2.75,1.17-4.31-.66-1.28-1.65-2.26-2.78-3.1-.92-.69-2.01-1.01-3.07-1.41-.35-.13-.7-.27-1.08-.42,0,.34.04.64,0,.93-.18.95-.37,1.9-.59,2.85s-.26,1.92.01,2.84c.46,1.6,1.55,2.53,3,2.98.38.12.79.14,1.28.22-.15-.83-.26-1.57-.43-2.3-.17-.73-.39-1.44-.63-2.15-.23-.69-.5-1.37-.75-2.05.03-.02.07-.03.1-.05.24.32.5.63.73.96,1.09,1.62,1.64,3.45,1.88,5.43.15,1.26.14,2.53.03,3.8-.09,1.02-.2,2.04-.3,3.07-.13,1.45-.27,2.9-.4,4.34-.03.38-.05.76-.07,1.19-.54-.44-1-.9-1.53-1.24-.45-.29-.67-.83-.61-1.36.19-1.6-.43-2.88-1.85-3.71-.95-.55-1.98-.76-3.06-.8-1.51-.05-3,.02-4.42.62-.84.35-1.66.76-2.49,1.14-.37.17-.75.34-1.15.52.92.75,1.56,1.64,2.15,2.58.39.63.8,1.25,1.25,1.83.78,1,1.86,1.79,3.09,2.09,1.44.35,2.82.11,4.08-.68.37-.23.71-.52,1.1-.81-2.26-1.76-4.74-2.91-7.29-3.96.13-.04.24-.04.35-.04,2.37.09,4.54,1.02,6.57,2.33.78.5,1.97,1.41,2.65,2.04.87.8,1.52,1.71,1.02,3.27-.27.84.14,1.65.32,2.51l-.05.07c-1.11.17-2.14.52-3.09,1.1-.14.08-.23.09-.36.03-1.6-.7-3.45-.73-4.97.13-.39.22-.74.48-1.05.81-.35.38-.54.9-.53,1.42.11,5.29,9.53,4.22,11.15,4.29,1.15.05,7.51,1.55,11.42-2.46.99-1.02.66-2.75-.67-3.25-.91-.34-1.9-.47-2.96-.41-.71.04-1.37.32-2.02.61-.26.12-.4.04-.58-.14-.81-.81-1.76-1.41-2.85-1.76-.56-.18-1.13-.3-1.76-.47-.11-1.66-.25-3.36-.31-5.06-.03-.89.19-1.76.87-2.39,2.37-2.18,5.02-3.86,8.26-4.41.48-.08.98-.1,1.47-.15,0,.03.01.06.02.09-.05.03-.1.08-.16.1-1.25.56-2.53,1.06-3.74,1.69Z"/>
  </g>
</svg>