<?xml version="1.0" encoding="UTF-8"?>
<svg id="Capa_2" data-name="Capa 2" xmlns="http://www.w3.org/2000/svg" viewBox="0 0 34.61 36.56">
  <defs>
    <style>
      .cls-1 {
        fill: #575756;
      }
    </style>
  </defs>
  <g id="Capa_1-2" data-name="Capa 1">
    <path class="cls-1" d="M26.47,6.3c-4.03,3.76-7.61,10.93-10.59,21.24-.08.27-.53.3-.68-.29C12.79,19.11,12.61,7.23.25.79c-.17-.07-.33.12-.2.25,10.04,9.38,12.57,27.88,13.88,34.72.65.81,3.16.81,3.16.81,0,0,2.2-16.78,6.37-22.43.12-.16.56-.58.76-.64,2.62-.3,8.82-1.14,9.27-8.82,0-.18.08-1.32.16-1.49,1.62-3.32.89-3.46.04-2.99-5.1,3.48-12.15-1.13-14.18,11.42.71,1.41,3.65-6.34,6.92-5.85.15.02.09.46.03.52Z"/>
  </g>
</svg>