<?xml version="1.0" encoding="UTF-8"?>
<svg id="Capa_2" data-name="Capa 2" xmlns="http://www.w3.org/2000/svg" viewBox="0 0 97.23 178.77">
  <defs>
    <style>
      .cls-1 {
        fill: #8c887e;
      }
    </style>
  </defs>
  <g id="Capa_1-2" data-name="Capa 1">
    <path class="cls-1" d="M32.61,133.19c3.6,1.73,11.71,4.42,12.48-1.54.81-6.29-.26-15.08-.07-21.79.66-22.9.4-45.32,0-68.19-.2-11.35,1.25-25.67.06-36.51-.1-.89-1.29-4.68-1.67-4.91-1.01-.62-2.48.05-3.44.63-1.89,1.15-12.72,12.07-15.01,14.47C4.52,36.75-4.25,56.69,1.96,87.03c3.18,15.54,15.83,39.05,30.64,46.16M18.85,84.89c-4.92-12.31-4.66-25.02,1.74-36.67,1.79-3.26,4.76-6.9,7.75-8.52,9.36,17.26,7.04,36.62-2.01,53.42-3.26,2.03-6.62-6.06-7.48-8.23"/>
    <path class="cls-1" d="M64.29,142.31c-6.09.2-12.83,1.15-18.82,1.36-5.96.21-36.39-1.29-38.87,2.25-2.62,10.29,6.36,29.56,16.87,32.09,6.78,1.63,13.18-.27,19.6-.28,13.91-.03,33.24,5.2,42.96-7.47,4.22-5.5,10.7-19.88,4.82-25.49-4.55-4.35-19.99-2.67-26.57-2.45"/>
    <path class="cls-1" d="M97.02,65.69c-1.64-19.96-16.46-40.56-30.24-54.32-2.01-2.01-8.15-8-10.06-9.33-3.42-2.38-4.17-.57-3.94,3.12.57,9.02,15.41,19.74,20.96,27.18,6.48,8.68,14.41,24.81,14.79,35.63.05,1.37.33,4.76-.76,5.52-1.1.77-3.39.55-4.35-.42-1.43-1.46-5.24-16.02-6.75-19.61-2.35-5.58-11.22-21.32-17.33-22.25-4.33-.66-5.9.93-6.47,5.08-.74,5.36-.61,23.17,1.66,27.68,2.09,4.16,17.71,9.89,22.85,12.84,4.86,2.79,9.88,6.34,14.27,9.84,1,.62,2.88.18,3.65-.6,2.33-2.37,2.04-16.56,1.73-20.35"/>
    <path class="cls-1" d="M71.44,126.19c5.27-4.72,17.61-17.96,17.77-24.91.11-4.71-5.83-10.25-9.31-13.04-5.2-4.16-25.61-17.65-27.11-4.74-1.03,8.83-.59,26.5.02,35.69.21,3.14,1.01,11.45,3.31,13.35,4.44,3.67,11.9-3.3,15.31-6.35M62.13,102.53c3.12,1.68,8.05,4.68,7.75,8.87-.08,1.04-.28,2.6-1.72,3.36-1.16.62-3.03.44-3.99-.57-3.19-3.3-2.04-11.67-2.04-11.67"/>
  </g>
</svg>