<?xml version="1.0" encoding="UTF-8"?>
<svg id="Capa_2" data-name="Capa 2" xmlns="http://www.w3.org/2000/svg" viewBox="0 0 92.12 178.82">
  <defs>
    <style>
      .cls-1 {
        fill: #8c887e;
      }
    </style>
  </defs>
  <g id="Capa_1-2" data-name="Capa 1">
    <path class="cls-1" d="M91.63,112.32c-1.99-6.86-19.66-15.35-25.77-20.74-14.89-13.12-18.05-29.96-8.94-47.78,2.98-5.84,5.61-7.9,11.6-10.51,3.49-1.52,17.36-4.45,18.15-7.03,1.75-5.73-7.94-12.58-12.56-14.61-9.23-4.06-14.17-3.44-22.64,1.55-2.37,1.4-5.77,5.51-8.5,5.22C38.79,18,30.39-1.03,21.62.04c-3.67.45-9.15,18.48-10.53,22.36C7.7,31.92,1.81,51.04,2.1,60.73c.47,16.12,24.08,2.76,22.93,14.41C24.42,81.27-.11,101.7,0,108.57c.16,10.02,33.34,66.49,45.1,70.22,3.76,1.19,35.4-41.74,43.84-55.69,2.31-3.81,4.07-5.98,2.68-10.78M12.99,30.84c-3.1-3.1,2.08-7.14,4.33-3.96,1.71,2.41-1.67,6.62-4.33,3.96M27.54,50.97c-3.84-3.3-6.17-21.62,1.63-21.11,10.44.68,5.63,27.35-1.63,21.11M53.86,141.79c-1.9,3.4-4.59,5.68-8.75,2.64-8.75-6.4-12.29-18.25-13.75-24.45-1.47-6.22.11-21.49,7.98-22.9,4.97-.89,10.53,5.04,12.78,8.62,7.96,12.61,5.18,29.93,1.74,36.09"/>
    <path class="cls-1" d="M84.03,36.4c.11-1.09-.84-2-1.93-1.9-12.35,1.16-21.55,6.09-24.08,19.56-3.21,17.12,2.89,29.52,18.35,36.92,2.69,1.29,10.62,4.74,12.35,2.15,1.98-2.97-6.14-15.92-7.61-20.61-2.45-7.85-2.65-16.38-.82-24.39.85-3.72,3.35-7.76,3.74-11.73"/>
  </g>
</svg>