<?xml version="1.0" encoding="UTF-8"?>
<svg id="Capa_1" xmlns="http://www.w3.org/2000/svg" version="1.1" viewBox="0 0 309.91 283.46">
  <!-- Generator: Adobe Illustrator 30.0.0, SVG Export Plug-In . SVG Version: 2.1.1 Build 123)  -->
  <defs>
    <style>
      .st0 {
        fill: #fff;
      }
    </style>
  </defs>
  <g>
    <path class="st0" d="M110.53,178.89c.3,0,.59.04.87.13.28.09.53.22.75.4.22.18.39.4.52.67.13.27.19.59.19.95,0,.41-.06.77-.19,1.06-.13.29-.3.53-.51.71-.21.18-.46.32-.74.4s-.57.12-.88.12h-3.47v3.32h-1.15v-7.76h4.62ZM107.07,180.01v2.21h3.47c.27,0,.48-.04.64-.11.16-.08.27-.17.35-.28.08-.11.13-.24.15-.37s.03-.26.03-.39c0-.3-.1-.55-.29-.75s-.49-.3-.88-.3h-3.47Z"/>
    <path class="st0" d="M122.09,183.72c0,.37-.04.73-.13,1.1s-.26.7-.52,1-.61.54-1.07.72c-.46.18-1.05.27-1.79.27s-1.33-.09-1.79-.27-.82-.42-1.07-.72-.43-.63-.52-1c-.09-.37-.13-.74-.13-1.1v-4.83h1.15v4.83c0,.28.04.54.11.79.07.24.2.45.37.63s.42.31.72.41c.3.1.69.15,1.16.15s.86-.05,1.16-.15c.3-.1.54-.24.72-.41.18-.18.3-.38.37-.63.07-.24.11-.5.11-.79v-4.83h1.15v4.83Z"/>
    <path class="st0" d="M126.38,178.89l4.76,5.9h.02v-5.9h1.15v7.76h-1.15l-4.76-5.9h-.02v5.9h-1.15v-7.76h1.15Z"/>
    <path class="st0" d="M141.21,178.89v1.12h-2.8v6.65h-1.15v-6.65h-2.81v-1.12h6.76Z"/>
    <path class="st0" d="M150.44,186.65h-1.3l-1.14-2.56h-3.57l-1.18,2.56h-1.26l3.62-7.76h1.28l3.56,7.76ZM146.22,180.28l-1.26,2.7h2.52l-1.26-2.7Z"/>
    <path class="st0" d="M163.5,185.27c-.19.2-.4.39-.62.58-.22.19-.49.35-.8.5-.31.15-.67.26-1.09.35-.42.09-.91.13-1.49.13-.54,0-1.06-.1-1.57-.29-.51-.19-.96-.46-1.35-.81-.39-.35-.7-.77-.94-1.26s-.35-1.03-.35-1.63.11-1.11.32-1.61c.21-.5.51-.94.89-1.3.38-.37.82-.66,1.33-.88s1.06-.32,1.65-.32c.55,0,1.04.07,1.48.2.44.13.82.28,1.15.46.33.18.6.35.81.53s.36.31.46.4l-.86.71c-.09-.07-.22-.17-.39-.31-.17-.13-.38-.27-.63-.39-.25-.13-.54-.24-.87-.34-.33-.1-.7-.15-1.11-.15-.38,0-.75.07-1.11.2-.36.13-.69.32-.98.57s-.52.56-.7.94c-.18.37-.27.8-.27,1.28,0,.35.07.69.21,1.03.14.34.35.65.63.92.28.27.63.49,1.05.66.42.17.9.25,1.44.25.43,0,.8-.05,1.13-.14.33-.09.61-.2.85-.33.24-.13.44-.26.6-.4s.28-.26.37-.37l.77.81Z"/>
    <path class="st0" d="M172.83,186.65h-1.3l-1.14-2.56h-3.57l-1.18,2.56h-1.26l3.62-7.76h1.28l3.56,7.76ZM168.61,180.28l-1.26,2.7h2.52l-1.26-2.7Z"/>
    <path class="st0" d="M175.7,178.89l4.76,5.9h.02v-5.9h1.15v7.76h-1.15l-4.76-5.9h-.02v5.9h-1.15v-7.76h1.15Z"/>
    <path class="st0" d="M191.77,186.65h-1.3l-1.14-2.56h-3.57l-1.18,2.56h-1.26l3.62-7.76h1.28l3.56,7.76ZM187.55,180.28l-1.26,2.7h2.52l-1.26-2.7Z"/>
  </g>
  <path class="st0" d="M159.64,108.97c15.36.96,29.05,3.87,39.62,7.94h0c-8.34-5.5-22.27-9.48-38.74-10.8l-.89,2.86ZM97.93,116.91h0c10.63-4.09,24.42-7.01,39.81-7.96l-1-2.85c-16.43,1.31-30.35,5.3-38.81,10.81"/>
  <rect class="st0" x="147.18" y="97.23" width="2.78" height="2.78" transform="translate(-26.26 133.74) rotate(-44.94)"/>
  <rect class="st0" x="144.43" y="100.03" width="2.77" height="2.77" transform="translate(-29.01 132.77) rotate(-44.98)"/>
  <rect class="st0" x="150.02" y="100.03" width="2.78" height="2.78" transform="translate(-27.34 136.9) rotate(-45.04)"/>
  <g>
    <path class="st0" d="M92.19,164.54h-1.51v-11.02h-4.7v-1.46h10.91v1.46h-4.7v11.02Z"/>
    <path class="st0" d="M111.75,164.54h-1.51v-5.79h-8.27v5.79h-1.51v-12.49h1.51v5.23h8.27v-5.23h1.51v12.49Z"/>
    <path class="st0" d="M127.65,164.54h-10.94v-12.49h10.56v1.46h-9.05v3.81h4.77v1.46h-4.77v4.28h9.43v1.46Z"/>
    <path class="st0" d="M149.19,161.06c0,.57-.15,1.08-.45,1.55-.3.47-.71.86-1.23,1.18-.52.32-1.13.57-1.84.75-.71.18-1.47.27-2.3.27-.89,0-1.76-.13-2.6-.4-.84-.27-1.59-.67-2.24-1.21-.65-.54-1.17-1.22-1.57-2.05-.39-.83-.59-1.81-.59-2.94,0-.83.17-1.64.51-2.41.34-.78.81-1.46,1.43-2.06s1.36-1.07,2.22-1.42,1.83-.53,2.89-.53c.78,0,1.47.09,2.07.26.6.17,1.12.38,1.57.62.45.24.82.5,1.12.77.3.27.55.49.75.67l-1.03,1.05c-.21-.17-.45-.36-.73-.58-.28-.22-.61-.43-.98-.62-.37-.19-.78-.36-1.24-.49-.45-.13-.94-.2-1.47-.2-.86,0-1.63.14-2.32.42-.69.28-1.27.65-1.77,1.11-.49.46-.87.99-1.13,1.59-.26.6-.39,1.21-.39,1.85,0,.75.13,1.45.39,2.07.26.63.63,1.17,1.11,1.62s1.06.8,1.75,1.06c.69.26,1.45.38,2.3.38.7,0,1.31-.07,1.84-.21.53-.14.97-.32,1.33-.55s.62-.48.8-.77c.18-.28.27-.57.27-.86v-1.75h-4.42v-1.46h5.93v3.31Z"/>
    <path class="st0" d="M164.16,164.54h-1.73l-2.97-5.19h-5.09v5.19h-1.51v-12.49h6.41c.32,0,.67.01,1.05.04.38.03.77.08,1.15.17.38.08.75.21,1.11.37.36.16.68.38.96.64.28.27.5.59.67.97s.25.85.25,1.39c0,.68-.1,1.24-.3,1.7-.2.46-.46.83-.78,1.12-.32.29-.67.5-1.06.64s-.77.22-1.15.26l2.98,5.19ZM159.89,157.88c.42,0,.82-.02,1.19-.07.37-.04.7-.14.98-.29.28-.15.5-.37.66-.67s.24-.7.24-1.21c0-.39-.08-.72-.24-.99-.16-.27-.37-.49-.63-.66-.26-.17-.56-.29-.9-.37-.34-.08-.68-.12-1.02-.12h-5.8v4.36h5.52Z"/>
    <path class="st0" d="M179.66,164.54h-1.68l-2.09-4.28h-6.17l-2.02,4.28h-1.68l6.12-12.49h1.51l6.02,12.49ZM172.89,153.84l-2.42,4.96h4.75l-2.33-4.96Z"/>
    <path class="st0" d="M193.88,164.54h-1.51l-8.33-10.17h-.03v10.17h-1.51v-12.49h1.51l8.33,10.3h.03v-10.3h1.51v12.49Z"/>
    <path class="st0" d="M205.04,152.06c.73,0,1.39.1,1.96.31.58.21,1.09.48,1.53.82.44.34.81.73,1.12,1.17s.56.89.75,1.35c.19.46.34.92.43,1.37s.14.87.14,1.23-.04.79-.11,1.24c-.07.45-.2.91-.38,1.37-.18.46-.42.91-.71,1.35s-.67.83-1.11,1.17c-.44.34-.96.61-1.56.82-.6.21-1.29.31-2.07.31h-6.31v-12.49h6.31ZM205.04,163.08c.73,0,1.37-.16,1.93-.47.55-.31,1.01-.7,1.38-1.17.37-.47.64-.99.83-1.55.19-.56.28-1.09.28-1.59s-.09-1.05-.28-1.61c-.19-.56-.47-1.08-.83-1.55-.37-.47-.83-.86-1.38-1.17s-1.2-.46-1.93-.46h-4.8v9.56h4.8Z"/>
  </g>
  <path class="st0" d="M266.44,137.11c-2.82,0-5.09-2.27-5.09-5.07s2.27-5.07,5.07-5.07,5.09,2.27,5.09,5.07-2.27,5.07-5.07,5.07ZM266.44,127.68c-2.41,0-4.37,1.96-4.37,4.36s1.97,4.36,4.35,4.36,4.37-1.94,4.37-4.36-1.94-4.36-4.36-4.36ZM268.62,132.1c-.26.17-.48.24-.74.27l1.38,2.19h-.87l-1.36-2.17h-2.14v2.17h-.77v-5.37h3.27c.49,0,.75.03,1.11.22.48.26.77.87.77,1.38,0,.46-.25,1.02-.65,1.3ZM268.14,130.07c-.18-.12-.35-.14-.87-.14h-2.37v1.76h2.5c.45,0,.62-.06.77-.16.24-.17.35-.46.35-.76s-.13-.55-.38-.7Z"/>
  <g>
    <polygon class="st0" points="56.09 144.85 56.09 126.96 53.5 126.96 47.13 138.11 40.96 126.96 38.4 126.96 38.4 144.85 40.94 144.85 40.94 132.33 47.13 143.39 53.48 132.33 53.48 144.85 56.09 144.85"/>
    <polygon class="st0" points="56.09 144.85 56.09 126.96 53.5 126.96 47.13 138.11 40.96 126.96 38.4 126.96 38.4 144.85 40.94 144.85 40.94 132.33 47.13 143.39 53.48 132.33 53.48 144.85 56.09 144.85"/>
    <path class="st0" d="M81.14,135.93c0-5.35-4.31-9.49-9.61-9.49s-9.64,3.96-9.64,9.21,4.2,9.64,9.61,9.64,9.64-4.08,9.64-9.35ZM71.53,142.64c-3.74,0-7.07-2.83-7.07-6.69s3.07-6.88,7.05-6.88,7.05,2.78,7.05,6.71-3.19,6.86-7.03,6.86Z"/>
    <path class="st0" d="M81.14,135.93c0-5.35-4.31-9.49-9.61-9.49s-9.64,3.96-9.64,9.21,4.2,9.64,9.61,9.64,9.64-4.08,9.64-9.35ZM71.53,142.64c-3.74,0-7.07-2.83-7.07-6.69s3.07-6.88,7.05-6.88,7.05,2.78,7.05,6.71-3.19,6.86-7.03,6.86Z"/>
    <path class="st0" d="M95.45,126.44c-5.13,0-9.64,3.96-9.64,9.21s4.2,9.64,9.61,9.64,9.64-4.08,9.64-9.35-4.31-9.49-9.61-9.49ZM95.45,142.64c-3.74,0-7.07-2.83-7.07-6.69s3.07-6.88,7.05-6.88,7.05,2.78,7.05,6.71-3.19,6.86-7.03,6.86Z"/>
    <path class="st0" d="M95.45,126.44c-5.13,0-9.64,3.96-9.64,9.21s4.2,9.64,9.61,9.64,9.64-4.08,9.64-9.35-4.31-9.49-9.61-9.49ZM95.45,142.64c-3.74,0-7.07-2.83-7.07-6.69s3.07-6.88,7.05-6.88,7.05,2.78,7.05,6.71-3.19,6.86-7.03,6.86Z"/>
    <polygon class="st0" points="113.44 131.23 124.23 144.85 126.82 144.85 126.82 126.96 124.19 126.96 124.19 140.63 113.42 126.96 110.88 126.96 110.88 144.85 113.44 144.85 113.44 131.23"/>
    <polygon class="st0" points="113.44 131.23 124.23 144.85 126.82 144.85 126.82 126.96 124.19 126.96 124.19 140.63 113.42 126.96 110.88 126.96 110.88 144.85 113.44 144.85 113.44 131.23"/>
    <path class="st0" d="M145.5,137.25h7.77c3.14,0,5.23-2.01,5.23-5.18s-2.06-5.11-5.23-5.11h-10.38v17.89h2.61v-7.6ZM145.5,129.58h7.77c1.73,0,2.64.72,2.64,2.49s-.96,2.54-2.64,2.54h-7.77v-5.04Z"/>
    <path class="st0" d="M145.5,137.25h7.77c3.14,0,5.23-2.01,5.23-5.18s-2.06-5.11-5.23-5.11h-10.38v17.89h2.61v-7.6ZM145.5,129.58h7.77c1.73,0,2.64.72,2.64,2.49s-.96,2.54-2.64,2.54h-7.77v-5.04Z"/>
    <path class="st0" d="M164.91,139.02h8.03l2.56,5.83h2.93l-8.01-17.86h-2.88l-8.13,17.86h2.83l2.66-5.83ZM168.94,130.15l2.83,6.23h-5.66l2.83-6.23Z"/>
    <path class="st0" d="M164.91,139.02h8.03l2.56,5.83h2.93l-8.01-17.86h-2.88l-8.13,17.86h2.83l2.66-5.83ZM168.94,130.15l2.83,6.23h-5.66l2.83-6.23Z"/>
    <polygon class="st0" points="196.36 142.24 185.48 142.24 185.48 126.96 182.86 126.96 182.86 144.85 196.36 144.85 196.36 142.24"/>
    <polygon class="st0" points="196.36 142.24 185.48 142.24 185.48 126.96 182.86 126.96 182.86 144.85 196.36 144.85 196.36 142.24"/>
    <path class="st0" d="M218.15,144.85l-8.01-17.86h-2.88l-8.13,17.86h2.83l2.66-5.83h8.03l2.56,5.83h2.93ZM205.83,136.39l2.83-6.23,2.83,6.23h-5.66Z"/>
    <path class="st0" d="M218.15,144.85l-8.01-17.86h-2.88l-8.13,17.86h2.83l2.66-5.83h8.03l2.56,5.83h2.93ZM205.83,136.39l2.83-6.23,2.83,6.23h-5.66Z"/>
    <path class="st0" d="M239,141.64l-1.73-1.87c-1.94,1.94-3.69,2.88-6.5,2.88-4.03,0-7.67-2.4-7.67-6.74,0-4.05,3.19-6.76,7.12-6.76,2.56,0,4.63,1.1,6.54,2.71l1.94-1.65c-2.35-2.28-5.32-3.67-8.63-3.67-5.35,0-9.54,3.91-9.54,9.33,0,5.73,4.55,9.42,10.07,9.42,3.28,0,6.23-1.1,8.39-3.65Z"/>
    <path class="st0" d="M239,141.64l-1.73-1.87c-1.94,1.94-3.69,2.88-6.5,2.88-4.03,0-7.67-2.4-7.67-6.74,0-4.05,3.19-6.76,7.12-6.76,2.56,0,4.63,1.1,6.54,2.71l1.94-1.65c-2.35-2.28-5.32-3.67-8.63-3.67-5.35,0-9.54,3.91-9.54,9.33,0,5.73,4.55,9.42,10.07,9.42,3.28,0,6.23-1.1,8.39-3.65Z"/>
    <polygon class="st0" points="246.52 136.87 252.61 136.87 252.61 134.28 246.52 134.28 246.52 129.6 258.63 129.6 258.63 126.96 243.91 126.96 243.91 144.85 259.09 144.85 259.09 142.24 246.52 142.24 246.52 136.87"/>
    <polygon class="st0" points="246.52 136.87 252.61 136.87 252.61 134.28 246.52 134.28 246.52 129.6 258.63 129.6 258.63 126.96 243.91 126.96 243.91 144.85 259.09 144.85 259.09 142.24 246.52 142.24 246.52 136.87"/>
  </g>
  <path class="st0" d="M161.52,96.67l-6.66,4.75,2.64,4.49c-2.92-.17-5.91-.27-8.96-.27s-6,.1-8.9.27l2.74-4.51-6.65-4.75,3.51,9.91v-.02s.81,2.29.81,2.29c2.78-.13,5.61-.2,8.49-.2s5.93.07,8.82.22l.88-2.84,3.27-9.33Z"/>
</svg>