<?xml version="1.0" encoding="UTF-8"?>
<svg id="Capa_2" data-name="Capa 2" xmlns="http://www.w3.org/2000/svg" viewBox="0 0 36.56 36.56">
  <defs>
    <style>
      .cls-1 {
        fill: #575756;
      }
    </style>
  </defs>
  <g id="Capa_1-2" data-name="Capa 1">
    <g>
      <path class="cls-1" d="M18.28,0C8.18,0,0,8.18,0,18.28s8.18,18.28,18.28,18.28,18.28-8.18,18.28-18.28S28.37,0,18.28,0ZM18.28,32.98c-3.34,0-6.42-1.12-8.89-3-1.02-.8-1.95-1.75-2.81-2.81-1.88-2.47-3-5.55-3-8.89,0-8.11,6.6-14.7,14.7-14.7,3.34,0,6.42,1.12,8.89,3,1.11.79,2.07,1.71,2.81,2.81,1.88,2.47,3,5.55,3,8.89,0,8.11-6.6,14.7-14.7,14.7Z"/>
      <path class="cls-1" d="M25.95,12.65c.29-.29.44-.56.44-.8,0-.16-.06-.28-.18-.37-.12-.09-.25-.15-.39-.18-.14-.03-.28-.04-.44-.04h-14.39c-.16,0-.3.01-.44.04-.14.03-.27.09-.39.18-.12.09-.18.22-.18.37,0,.24.15.5.44.8l6.46,6.46v7.85h-3.27c-.18,0-.33.06-.46.19s-.19.28-.19.46.06.33.19.46c.13.13.28.19.46.19h9.16c.18,0,.33-.06.46-.19.13-.13.19-.28.19-.46s-.06-.33-.19-.46c-.13-.13-.28-.19-.46-.19h-3.27v-7.85l6.46-6.46Z"/>
    </g>
  </g>
</svg>