<?xml version="1.0" encoding="UTF-8"?>
<svg id="Capa_2" data-name="Capa 2" xmlns="http://www.w3.org/2000/svg" viewBox="0 0 36.56 36.56">
  <defs>
    <style>
      .cls-1 {
        fill: #575756;
      }
    </style>
  </defs>
  <g id="Capa_1-2" data-name="Capa 1">
    <path class="cls-1" d="M15.52,15.99c-1.28-1.21-3-1.89-4.85-1.9h-.39s0,.36,0,.36c.01,1.75.72,3.38,2,4.59s3,1.89,4.85,1.9h.39s0-.36,0-.36c-.01-1.75-.72-3.38-2-4.59ZM18.55,6.74l-.27-.26-.27.26c-1.3,1.27-2.01,2.94-2.01,4.69s.72,3.42,2.01,4.69l.27.26.27-.26c1.3-1.27,2.01-2.94,2.01-4.69s-.72-3.42-2.01-4.69ZM15.52,22.46c-1.28-1.21-3-1.89-4.85-1.9h-.39s0,.36,0,.36c.01,1.75.72,3.38,2,4.59,1.28,1.21,3,1.89,4.85,1.9h.39s0-.36,0-.36c-.01-1.75-.72-3.38-2-4.59ZM21.04,15.99c-1.28,1.21-1.99,2.84-2,4.59v.36s.38,0,.38,0c1.85-.01,3.57-.68,4.85-1.9,1.28-1.21,1.99-2.84,2-4.59v-.37s-.38,0-.38,0c-1.85,0-3.57.68-4.85,1.9ZM21.04,22.46c-1.28,1.21-1.99,2.84-2,4.59v.36s.38,0,.38,0c1.85-.01,3.57-.68,4.85-1.9,1.28-1.21,1.99-2.84,2-4.59v-.37s-.38,0-.38,0c-1.85,0-3.57.68-4.85,1.9ZM18.28,0C8.18,0,0,8.18,0,18.28s8.18,18.28,18.28,18.28,18.28-8.18,18.28-18.28S28.38,0,18.28,0ZM18.28,32.99c-3.34,0-6.42-1.12-8.89-3l2.77-2.77c-.31-.22-.62-.44-.9-.7-.72-.68-1.27-1.48-1.69-2.34l-2.99,2.99c-1.88-2.47-3-5.55-3-8.89,0-8.11,6.6-14.7,14.7-14.7,3.34,0,6.42,1.12,8.89,3l-4.88,4.88c0,.06.02.11.02.17,0,.48-.04.96-.13,1.43,1.06-.45,2.21-.68,3.41-.69h.37s1.06,0,1.06,0l2.96-2.96c1.88,2.47,3,5.55,3,8.89,0,8.11-6.6,14.7-14.7,14.7Z"/>
  </g>
</svg>