<?xml version="1.0" encoding="UTF-8"?>
<svg id="Capa_2" data-name="Capa 2" xmlns="http://www.w3.org/2000/svg" viewBox="0 0 16.92 36.56">
  <defs>
    <style>
      .cls-1 {
        fill: #575756;
      }
    </style>
  </defs>
  <g id="Capa_1-2" data-name="Capa 1">
    <path class="cls-1" d="M16.92,15.72c0-1.39-.31-2.71-.93-3.93-.3-.59-.6-1.19-.9-1.79-.68-1.36-1.38-2.77-2.12-4.13-.29-.55-.29-1.1-.29-1.69,0-.08,0-.16,0-.24.59-.13.75-.38.76-1.05v-.41c0-.51,0-1.02,0-1.53,0-.63-.32-.93-.95-.93C9.8,0,7.12,0,4.44,0,3.81,0,3.5.31,3.49.93c0,.51,0,1.02,0,1.53v.41c0,.67.17.92.76,1.05,0,.08,0,.16,0,.24,0,.59,0,1.15-.29,1.7-.58,1.08-1.14,2.19-1.67,3.26-.4.79-.79,1.59-1.2,2.37C.34,12.91-.01,14.39,0,16.03c.01,2.07.01,4.14,0,6.2v5.34c0,2.13,0,4.26,0,6.39,0,1.12.46,1.91,1.36,2.37.1.05.19.09.29.14l.15.07,13.21.02.16-.04.03-.05c1.26-.52,1.71-1.21,1.71-2.6V15.72ZM3.62,13.83c-.16.63-.23,1.33-.23,2.26,0,3.19,0,6.38,0,9.57v2.87c0,.14,0,.31-.02.47-.06.42-.25.66-.52.66h0c-.27,0-.46-.25-.52-.68-.02-.13-.02-.26-.02-.37v-.06s0-8.36,0-8.36c0-1.54,0-3.07,0-4.61,0-.79.11-1.58.33-2.35.11-.4.31-.61.55-.52.15.05.32.22.43.43.1.2.06.54.02.69ZM12.99,10c-.28.19-.54.37-.82.53-.52.31-1.03.29-1.58-.05l-.17-.1c-.39-.24-.8-.5-1.25-.63-.27-.08-.54-.11-.8-.11-.65,0-1.27.23-1.8.67-.69.57-1.48.58-2.16,0-.18-.15-.38-.27-.58-.38-.03-.02-.06-.04-.1-.05l.03-.06.48-.95c.44-.87.88-1.75,1.33-2.61.24-.46.34-.88.31-1.33-.01-.27-.01-.54,0-.82v-.16h5.15c0,.06,0,.12,0,.18,0,.32-.01.66.01.99.03.39.11.72.24.99.43.9.88,1.78,1.33,2.67l.56,1.11-.18.12Z"/>
  </g>
</svg>