<?xml version="1.0" encoding="UTF-8"?>
<svg id="Capa_2" data-name="Capa 2" xmlns="http://www.w3.org/2000/svg" viewBox="0 0 51.68 36.34">
  <defs>
    <style>
      .cls-1 {
        fill: #575756;
      }
    </style>
  </defs>
  <g id="Capa_1-2" data-name="Capa 1">
    <g>
      <path class="cls-1" d="M17.19,19.5c-2.45-1.59-5-3.6-7.13-6.03-1.91-2.21-3.49-4.78-4.31-7.74-.36.64-.64,1.38-.84,2.22-.14.59-.21,1.2-.21,1.81.02,2,.75,4.02,2.16,5.88,1.52,2.02,3.83,3.86,6.88,5.3,3.24,1.55,7.32,2.65,12.18,3.04-1.46-.57-4.98-2.05-8.73-4.48ZM26.87,20.39c-.21-1.8-.61-4.23-1.43-6.76-1.63-5.04-4.96-10.61-11.69-12.09h-.04s-.05-.01-.05-.01c-.01,0-.12-.01-.31-.01-.33,0-.93.02-1.66.15-.73.13-1.61.36-2.49.78-.85.4-1.71,1-2.46,1.84.03.05.05.1.06.16.96,4.55,4.05,8.31,7.53,11.2,3.47,2.9,7.35,4.94,9.92,6.08.84.38,1.55.66,2.03.85.49.19.75.28.75.28.01,0,.02.01.03.02-.02-.51-.07-1.38-.19-2.49ZM23.69,19.16c-.06.01-.12.02-.17.02-.29,0-.55-.19-.63-.48-2.78-10.22-8.8-12.22-10.17-12.6-.2-.05-.28-.06-.28-.06-.32-.05-.55-.32-.55-.64,0-.03,0-.06,0-.09.04-.32.31-.55.63-.55.04,0,.07,0,.11,0,.19,0,8.23,1.42,11.5,13.6,0,.06.02.11.02.17,0,.28-.19.54-.47.62Z"/>
      <path class="cls-1" d="M43.89,12.02c-.17,0-.34-.02-.51-.02-3.15.03-6.14,1.87-8.34,5.25-2.2,3.37-3.62,8.26-3.62,14.4,0,1.34.07,2.74.21,4.19.08-.5.26-1.47.56-2.74.44-1.89,1.15-4.45,2.24-7.18,1.09-2.72,2.55-5.62,4.5-8.16,1.73-2.25,3.84-4.21,6.44-5.52-.46-.11-.95-.19-1.48-.22ZM51.45,18.43c-.18-.66-.49-1.54-1.01-2.45-.52-.91-1.29-1.85-2.36-2.58-.28-.19-.58-.37-.91-.53-.05.07-.13.12-.22.16-4.17,1.7-7.21,5.4-9.35,9.38-2.15,3.98-3.42,8.23-4.05,11-.21.92-.37,1.67-.46,2.19-.07.36-.11.62-.13.74.51-.11,1.33-.3,2.34-.59,1.74-.51,4.06-1.32,6.42-2.54,4.7-2.45,9.63-6.67,9.96-13.55v-.09s-.05-.47-.23-1.14ZM48.32,19.13v.05c0,.85-.55,8.51-11.49,13.54-.08.04-.18.06-.27.06-.24,0-.47-.14-.58-.37-.15-.33-.01-.71.31-.86,5.37-2.48,8.04-5.54,9.38-8s1.34-4.33,1.35-4.43c0-.04.01-.08.01-.11.05-.33.33-.55.65-.55.03,0,.07.01.1.01.31.06.54.33.54.64v.02Z"/>
      <path class="cls-1" d="M44.39,3.7c-.11-.38-.28-.88-.58-1.4-.29-.52-.74-1.06-1.37-1.49-.62-.43-1.42-.74-2.41-.8-.09-.01-.19-.01-.29-.01-1.84.03-3.52,1.08-4.75,2.97-1.23,1.88-2.01,4.59-2.01,7.94,0,.73.04,1.5.12,2.31l.07.69.68-.12s.65-.11,1.61-.39c.95-.27,2.22-.71,3.52-1.39,2.58-1.34,5.35-3.7,5.54-7.56v-.1s-.03-.28-.13-.65ZM40.23,3.34s-.01.01-.1.03c-.08.03-.2.08-.36.16-.31.16-.75.43-1.21.9-.45.46-.93,1.12-1.32,2.07-.4.95-.7,2.18-.81,3.79-.02.34-.3.6-.64.6h-.04c-.36-.02-.63-.33-.61-.68.41-6.93,4.61-8.13,4.81-8.13.05-.01.09-.01.13-.01.3,0,.57.2.64.5.01.05.02.1.02.14,0,.3-.21.57-.51.63Z"/>
      <path class="cls-1" d="M16.3,26.48s-.19-.7-.6-1.72c-.4-1.02-1.03-2.37-1.91-3.74-.02-.03-.03-.05-.05-.08-.87-1.34-2.01-2.7-3.43-3.73-1-.73-2.15-1.29-3.45-1.57-.59-.14-1.22-.21-1.88-.21-.17,0-.34,0-.52.01h-.05s-.04.02-.04.02c-.03.01-.3.06-.7.21s-.93.39-1.47.77c-1.08.75-2.2,2.14-2.2,4.28v.03c0,.07,0,.16.01.25.09,1.9,1.18,3.6,3.05,4.83,1.87,1.23,4.53,1.98,7.76,1.98h.02c1.53,0,3.18-.16,4.97-.52l.68-.14-.19-.67ZM12.76,24.65c0,.35-.28.64-.62.65-.26.01-.5.01-.75.01h-.08c-3.63,0-5.86-1.08-7.18-2.19-1.33-1.11-1.75-2.23-1.75-2.31-.11-.34.07-.7.41-.81.07-.02.14-.03.2-.03.27,0,.52.17.62.44,0,0,0,.02.04.11.04.09.11.22.21.38.21.33.55.79,1.1,1.24.55.46,1.31.93,2.35,1.29,1.05.35,2.38.59,4.08.59.23,0,.46,0,.7,0h.02c.35,0,.64.28.65.62v.02Z"/>
    </g>
  </g>
</svg>