<?xml version="1.0" encoding="UTF-8"?>
<svg id="Capa_2" data-name="Capa 2" xmlns="http://www.w3.org/2000/svg" viewBox="0 0 15.91 37.37">
  <defs>
    <style>
      .cls-1 {
        fill: #575756;
      }
    </style>
  </defs>
  <g id="Capa_1-2" data-name="Capa 1">
    <path class="cls-1" d="M15.03,7.37c-.65-.88-1.59-1.45-2.64-1.61.3-1.24.95-3.1,2.28-4.13.41-.33.48-.89.18-1.3l-.02-.02c-.32-.37-.88-.42-1.31-.11-1.92,1.49-2.75,4.1-3.08,5.67-2.24.6-3.91,2.64-4.01,4.94-.31,8.26-2.41,16.44-6.24,24.3-.43.88-.04,1.64.54,2,.26.16.58.26.9.26.49,0,1-.21,1.38-.7,5.95-7.57,10.23-16.01,12.71-25.11.41-1.51.16-3.04-.68-4.19Z"/>
  </g>
</svg>