<?xml version="1.0" encoding="UTF-8"?>
<svg id="Capa_2" data-name="Capa 2" xmlns="http://www.w3.org/2000/svg" viewBox="0 0 28.13 36.64">
  <defs>
    <style>
      .cls-1 {
        fill: #575756;
        fill-rule: evenodd;
      }
    </style>
  </defs>
  <g id="Capa_1-2" data-name="Capa 1">
    <path class="cls-1" d="M.9,33.18c.87-.47,1.64-.91,2.43-1.3,1.99-.97,4.08-1.56,6.31-1.56,1.24,0,2.41.34,3.58.73.93.31,1.87.63,2.82.89,1.01.27,2.05.27,3.09.02-.02-.03-.03-.05-.03-.05-1.5.08-2.89-.32-4.26-.87-.6-.24-1.2-.47-1.8-.73-2.66-1.17-5.35-1.11-8.04-.13-.24.09-.48.18-.72.26-.02-.02-.03-.04-.05-.06.4-.35.79-.73,1.21-1.06.85-.64,1.8-1.11,2.8-1.47,1.5-.54,3.03-.61,4.53-.08,1.21.43,2.37,1.01,3.56,1.52.8.34,1.58.73,2.4,1.02,1.13.4,2.27.43,3.47-.1-.11.28-.18.51-.29.73-.47,1-1.16,1.83-1.96,2.58-1.25,1.16-2.66,2.06-4.26,2.63-2.65.93-5.13.54-7.44-1.03-.86-.59-1.71-1.21-2.61-1.74-1.66-.98-3.1-.77-4.75.34-.11.08-.14.27-.21.41-.21-.22-.43-.44-.68-.7.17-.58.36-1.22.55-1.85.85-2.82,1.83-5.58,3.28-8.15,1.18-2.09,2.56-4.04,4.22-5.77,1.42-1.48,3.07-2.67,4.92-3.55,1.77-.85,3.58-1.62,5.37-2.44,1.72-.78,3.34-1.72,4.71-3.03.74-.71,1.39-1.5,1.9-2.41-.05.03-.11.06-.15.1-1.63,1.8-3.65,3.04-5.88,3.95-1.98.81-3.99,1.55-5.98,2.34-1.67.66-3.26,1.51-4.72,2.57-1.16.84-2.16,1.86-3.08,2.96-1.52,1.82-2.73,3.84-3.74,5.98-.02.04-.04.09-.07.13-.03,0-.06,0-.09-.01.06-.72.08-1.45.17-2.16.44-3.34,1.6-6.4,3.6-9.12,1.3-1.78,3.06-3.05,5.03-4.02,2.02-1,4.18-1.64,6.33-2.27,1.91-.56,3.83-1.09,5.64-1.93,1.18-.55,2.26-1.25,3.18-2.18.63-.64,1.13-1.38,1.51-2.19.05-.1.1-.2.18-.37.08.16.14.27.19.38.78,1.8,1.06,3.71,1.05,5.65-.02,4.21-1,8.19-3.13,11.83-2.38,4.06-5.92,6.54-10.54,7.44-1.57.3-3.17.46-4.75.74-1.17.2-2.35.41-3.48.75-2.34.71-3.86,2.33-4.72,4.59-.22.57-.39,1.15-.61,1.8Z"/>
  </g>
</svg>